<svg xmlns="http://www.w3.org/2000/svg" width="24.582" height="29.052" viewBox="0 0 24.582 29.052">
  <path id="Icon_ionic-md-notifications-outline" data-name="Icon ionic-md-notifications-outline" d="M16.267,7.4a10.1,10.1,0,0,1,1.67.313,7.117,7.117,0,0,1,5.425,6.973V23.6l.651.654.544.546H7.838l.544-.546.651-.654V14.691a7.117,7.117,0,0,1,5.425-6.973,12.363,12.363,0,0,1,1.67-.313m.07-5.061a2.135,2.135,0,0,0-2.169,2.179V5.539A9.415,9.415,0,0,0,6.8,14.691V22.68L3.906,25.585v1.453H28.489V25.585L25.6,22.68V14.691a9.415,9.415,0,0,0-7.23-9.151V4.523A2.135,2.135,0,0,0,16.2,2.344Zm2.892,26.147H13.305a2.892,2.892,0,1,0,5.784,0Z" transform="translate(-3.906 -2.344)" fill="#707070"/>
</svg>
