<svg xmlns="http://www.w3.org/2000/svg" width="17.138" height="17.138" viewBox="0 0 17.138 17.138">
  <path id="Icon_metro-qrcode" data-name="Icon metro-qrcode" d="M6.784,2.142H2.5V6.427H6.784ZM7.855,1.071V7.5H1.428V1.071ZM3.57,3.213H5.713V5.356H3.57ZM17.5,2.142H13.211V6.427H17.5V2.142Zm1.071-1.071V7.5H12.139V1.071h6.427ZM14.282,3.213h2.142V5.356H14.282Zm-7.5,9.64H2.5v4.285H6.784V12.854Zm1.071-1.071v6.427H1.428V11.782H7.855ZM3.57,13.925H5.713v2.142H3.57ZM8.926,1.071H10V2.142H8.926ZM10,2.142h1.071V3.213H10ZM8.926,3.213H10V4.285H8.926ZM10,4.285h1.071V5.356H10ZM8.926,5.356H10V6.427H8.926ZM10,6.427h1.071V7.5H10ZM8.926,7.5H10V8.569H8.926Zm0,2.142H10v1.071H8.926ZM10,10.711h1.071v1.071H10ZM8.926,11.782H10v1.071H8.926ZM10,12.854h1.071v1.071H10ZM8.926,13.925H10V15H8.926ZM10,15h1.071v1.071H10ZM8.926,16.067H10v1.071H8.926ZM10,17.138h1.071v1.071H10Zm7.5-7.5h1.071v1.071H17.5Zm-15,0H3.57v1.071H2.5ZM3.57,8.569H4.642V9.64H3.57Zm-2.142,0H2.5V9.64H1.428Zm4.285,0H6.784V9.64H5.713ZM6.784,9.64H7.855v1.071H6.784ZM7.855,8.569H8.926V9.64H7.855ZM11.068,9.64h1.071v1.071H11.068Zm1.071-1.071h1.071V9.64H12.139ZM13.211,9.64h1.071v1.071H13.211Zm1.071-1.071h1.071V9.64H14.282ZM15.353,9.64h1.071v1.071H15.353Zm1.071-1.071H17.5V9.64H16.424ZM17.5,11.782h1.071v1.071H17.5Zm-6.427,0h1.071v1.071H11.068Zm1.071-1.071h1.071v1.071H12.139Zm1.071,1.071h1.071v1.071H13.211Zm2.142,0h1.071v1.071H15.353Zm1.071-1.071H17.5v1.071H16.424ZM17.5,13.925h1.071V15H17.5Zm-6.427,0h1.071V15H11.068Zm1.071-1.071h1.071v1.071H12.139Zm2.142,0h1.071v1.071H14.282Zm1.071,1.071h1.071V15H15.353Zm1.071-1.071H17.5v1.071H16.424ZM17.5,16.067h1.071v1.071H17.5ZM12.139,15h1.071v1.071H12.139Zm1.071,1.071h1.071v1.071H13.211ZM14.282,15h1.071v1.071H14.282Zm1.071,1.071h1.071v1.071H15.353Zm-3.213,1.071h1.071v1.071H12.139Zm2.142,0h1.071v1.071H14.282Zm2.142,0H17.5v1.071H16.424Z" transform="translate(-1.428 -1.071)" fill="#6c63ff"/>
</svg>
