<svg xmlns="http://www.w3.org/2000/svg" width="17.667" height="17.667" viewBox="0 0 17.667 17.667">
  <g id="ico-copy" transform="translate(-0.833 -0.833)">
    <path id="パス_3351" data-name="パス 3351" d="M9.167,7.5h7.5a1.667,1.667,0,0,1,1.667,1.667v7.5a1.667,1.667,0,0,1-1.667,1.667h-7.5A1.667,1.667,0,0,1,7.5,16.667v-7.5A1.667,1.667,0,0,1,9.167,7.5Z" transform="translate(-0.667 -0.667)" fill="none" stroke="#6c63ff" stroke-linecap="round" stroke-linejoin="round" stroke-width="1.667"/>
    <path id="パス_3352" data-name="パス 3352" d="M4.167,12.5H3.333a1.667,1.667,0,0,1-1.667-1.667v-7.5A1.667,1.667,0,0,1,3.333,1.667h7.5A1.667,1.667,0,0,1,12.5,3.333v.833" fill="none" stroke="#6c63ff" stroke-linecap="round" stroke-linejoin="round" stroke-width="1.667"/>
  </g>
</svg>